<?xml version="1.0" encoding="utf-8"?>
<!-- Generator: Adobe Illustrator 21.0.0, SVG Export Plug-In . SVG Version: 6.00 Build 0)  -->
<svg version="1.1" id="Camada_1" xmlns="http://www.w3.org/2000/svg" xmlns:xlink="http://www.w3.org/1999/xlink" x="0px" y="0px"
	 viewBox="0 0 480 480" style="enable-background:new 0 0 480 480;" xml:space="preserve">
<style type="text/css">
	.st0{fill:#4D4D4D;}
	.st1{fill:#FFFFFF;}
	.st2{fill:#333333;}
	.st3{fill:#B3B3B3;}
	.st4{fill:none;stroke:#B3B3B3;stroke-width:3;stroke-linecap:round;stroke-miterlimit:10;}
	.st5{fill:none;stroke:#B3B3B3;stroke-width:4;stroke-linecap:round;stroke-miterlimit:10;}
	.st6{fill:none;stroke:#B3B3B3;stroke-width:5;stroke-linecap:round;stroke-miterlimit:10;}
	.st7{font-family:'PrestigeEliteStd-Bd';}
	.st8{font-size:35.5654px;}
	.st9{font-family:'DunkinSans';}
	.st10{font-size:26.3895px;}
</style>
<rect x="-575.3" width="480" height="480"/>
<g>
	<path class="st0" d="M-291,152.9h-7.4c-1.8,0-3.6,0.1-5.4,0.4c-0.9,0.1-1.7,0.6-2.3,1.3c-0.6,0.7-0.8,1.6-0.7,2.5
		c0.3,1.9,2,3.2,3.9,2.9c1.5-0.2,2.9-0.3,4.4-0.3h7.4c1.9,0,3.4-1.5,3.4-3.4C-287.6,154.4-289.1,152.9-291,152.9z"/>
	<path class="st0" d="M-330.7,192.6c0-9.7,4.3-18.8,11.8-25c0.8-0.7,1.3-1.6,1.4-2.7c0.1-1.1-0.2-2.1-0.9-2.9l0,0
		c-0.7-0.8-1.6-1.3-2.7-1.4c-1.1-0.1-2.1,0.2-2.9,0.9c-2.7,2.2-5.2,4.9-7.4,8.1l-3.3,4.8l-3.3-4.7c-7.6-10.7-19.9-17.2-32.9-17.2
		h-7.4c-2.2,0-4,1.8-4,4c0,2.2,1.8,4,4,4h7.4c17.8,0,32.2,14.5,32.2,32.3v25.5c0,2.2,1.8,4,4,4c2.2,0,4-1.8,4-4V192.6z"/>
	<g>
		<path d="M-399,202.9c-14.9,0-27,12.1-27,27c0,14.9,12.1,27,27,27s27-12.1,27-27C-372,214.9-384.1,202.9-399,202.9z M-399,247.4
			c-9.7,0-17.6-7.9-17.6-17.6c0-9.7,7.9-17.6,17.6-17.6c9.7,0,17.6,7.9,17.6,17.6C-381.4,239.5-389.3,247.4-399,247.4z"/>
		<path class="st1" d="M-399,257.4c-15.2,0-27.5-12.4-27.5-27.5c0-15.2,12.4-27.5,27.5-27.5c15.2,0,27.5,12.4,27.5,27.5
			C-371.4,245-383.8,257.4-399,257.4z M-399,203.4c-14.5,0-26.4,11.8-26.4,26.4c0,14.5,11.8,26.4,26.4,26.4
			c14.5,0,26.4-11.8,26.4-26.4C-372.6,215.3-384.4,203.4-399,203.4z M-399,248c-10,0-18.2-8.2-18.2-18.2c0-10,8.2-18.2,18.2-18.2
			s18.2,8.2,18.2,18.2C-380.8,239.8-388.9,248-399,248z"/>
	</g>
	<g>
		<path d="M-271.7,202.9c-14.9,0-27,12.1-27,27c0,14.9,12.1,27,27,27s27-12.1,27-27C-244.8,214.9-256.8,202.9-271.7,202.9z
			 M-271.7,247.4c-9.7,0-17.6-7.9-17.6-17.6c0-9.7,7.9-17.6,17.6-17.6s17.6,7.9,17.6,17.6C-254.1,239.5-262,247.4-271.7,247.4z"/>
		<path class="st1" d="M-271.7,257.4c-15.2,0-27.5-12.4-27.5-27.5c0-15.2,12.4-27.5,27.5-27.5c15.2,0,27.5,12.4,27.5,27.5
			C-244.2,245-256.5,257.4-271.7,257.4z M-271.7,203.4c-14.5,0-26.4,11.8-26.4,26.4c0,14.5,11.8,26.4,26.4,26.4
			c14.5,0,26.4-11.8,26.4-26.4C-245.3,215.3-257.2,203.4-271.7,203.4z M-271.7,248c-10,0-18.2-8.2-18.2-18.2
			c0-10,8.2-18.2,18.2-18.2s18.2,8.2,18.2,18.2C-253.5,239.8-261.7,248-271.7,248z"/>
	</g>
	<path class="st1" d="M-227,337.5c-2.2,2.6-4.7,5.1-7.3,7.5l-1.1,0.9l1.1,16.7l0,0.2c0,0.1,0,0.3,0,0.4c0,0.1,0,0.3,0,0.4l-0.9,7.9
		c0,0.1,0,0.2,0,0.3l0,0.2c-2.1,14.3-15,25.2-29.9,25.2c-9.4,0-18.2-4.2-24-11.4l-1.3-1.6l-1.9,0.7c-7.7,2.6-15.6,4.5-23.5,5.7
		c-3.8,6.7-10.8,11.1-18.8,11.1c-8,0-14.9-4.5-18.8-11.1c-8-1.2-15.9-3-23.6-5.7l-1.9-0.7l-1.3,1.6c-5.8,7.2-14.5,11.4-23.9,11.4
		c-15.2,0-28.2-11-30.1-25.5l-0.9-8l0-0.1c0-0.1,0-0.3,0-0.4c0-0.1,0-0.3,0-0.5l1.1-16.8l-1.1-0.9c-2.7-2.4-5.2-5-7.5-7.8l-0.4-0.2
		c-0.4,0.3-0.8,0.6-1.2,1l0.5,0.4c2.4,2.8,4.9,5.4,7.5,7.7l0.9,0.8l-1.1,16.6c0,0.2,0,0.3,0,0.4c0,0.1,0,0.2,0,0.4l0.9,8.2
		c1.9,14.8,15.2,26,30.9,26c9.6,0,18.6-4.3,24.5-11.6l1-1.3l1.6,0.5c7.6,2.6,15.5,4.5,23.5,5.6c4.2,7,11.4,11.2,19.3,11.2
		c7.9,0,15.1-4.2,19.3-11.2c8-1.2,15.9-3.1,23.5-5.7l1.6-0.5l1,1.3c6,7.4,14.9,11.6,24.6,11.6c15.3,0,28.5-11.1,30.7-25.7l1-8.4
		c0-0.1,0-0.2,0-0.4l0-0.6l-1.1-16.5l0.9-0.8c2.4-2.1,4.7-4.5,7-7.1l0.4-0.5C-226.3,338.2-226.6,337.9-227,337.5z"/>
	<path class="st2" d="M-253.7,122.5l35,34.9l-1.4-7.5c-0.8-4.4-2.3-8.4-4.5-11.9l-9.2-15.5l-1.3,0c-0.4,0-0.8,0-1.2,0H-253.7z"/>
	<path class="st2" d="M-436.9,122.5l-9.2,15.4c-2.5,4.2-4.1,8.8-4.8,13.7l-1,6.9l36.1-36.1h-18.7c-0.4,0-0.8,0-1.2,0L-436.9,122.5z"
		/>
	<path class="st0" d="M-265.2,387.4c-10.2,0-19.1-7.5-20.4-16.9l-0.9-8c0-0.2-0.1-0.5-0.2-0.8l-0.1-0.5c-0.3-2.6-0.6-4.8-1.1-6.8
		c0,0,0-0.1,0-0.1c0-0.1,0-0.1-0.1-0.2l-0.1-0.5l0.4-0.2c2.4-1.3,4.8-2.9,7.1-4.8c1.7-1.4,2-4,0.6-5.8l0,0c-1.4-1.7-4-2-5.8-0.6
		c-6.7,5.6-12.8,7.4-18.7,5.6c-13.5-4.2-23-27.5-25.5-36.1c0-0.1,0-0.1-0.1-0.2l-0.1-0.4V299c0-0.5-0.1-1-0.3-1.6l-1.1-3.1l3-1.3
		c2.7-1.2,5.1-3.1,7.1-5.6l5.6-6.9c1.3-1.7,1.7-3.6,1.8-4.9l0.2-5.2l4.7,2.2c3.6,1.6,6.9,3.5,9.8,5.6l20.9,14.9
		c11.4,8.1,23.9,18.2,29.6,31.4l3.1,7.3l0.5,14.5l1,15l-1.3,12.1l-1,2.2C-249.7,382.6-257.2,387.4-265.2,387.4z"/>
	<path class="st0" d="M-404.2,387.4c-10.2,0-19.1-7.5-20.4-16.9l-0.8-7.5l1.4-22.7c0-0.1,0-0.2,0-0.3c0-20.6,15.8-34.7,32.8-46.8
		l20.9-14.9c3-2.1,6.3-4,9.8-5.6l4.7-2.2l0.2,5.2c0.1,1.3,0.4,3.2,1.8,4.9l5.6,6.9c2,2.5,4.4,4.4,7.1,5.6l3,1.3l-1.1,3.1
		c-0.2,0.6-0.3,1.1-0.3,1.6l0,13.1c-3.2,10.7-12.6,31.9-25.4,35.8c-5.8,1.8-11.9,0-18.7-5.6c-1.7-1.4-4.3-1.2-5.8,0.6
		c-1.4,1.7-1.2,4.3,0.6,5.8c2.1,1.8,4.3,3.3,6.6,4.5l0.4,0.2l-0.1,0.4c-0.6,2.7-1,5.5-1.2,8.3l0,0.2c0,0.2,0,0.3-0.1,0.5l-0.8,7.5
		C-385.1,379.9-394,387.4-404.2,387.4z"/>
	<path class="st2" d="M-356,380.2l-0.7-0.1c-5-0.9-9.9-2.2-14.7-3.7l-2.4-0.8V365c0-2.7,0.3-5.4,0.8-8l0.1-0.5l0.5,0.1
		c1.2,0.2,2.3,0.3,3.2,0.3c2.3,0,4.6-0.3,6.8-1c1.8-0.6,3.6-1.4,5.4-2.4l0.9-0.5v26.1c0,0.1,0,0.2,0,0.3c0,0.1,0,0.2,0,0.3
		L-356,380.2z"/>
	<path class="st2" d="M-313.4,380.2l0-0.7c0-0.1,0-0.2,0-0.3c0-0.1,0-0.2,0-0.4l0-0.4l0.2-0.1l-0.2-25.7l0.9,0.5
		c1.8,1.1,3.7,2,5.6,2.5c2.2,0.7,4.5,1,6.8,1c0.8,0,1.7-0.1,2.7-0.2l0.5-0.1l0.1,0.5c0.7,3.1,1.1,6.2,1.1,9.4v9.2l-2.4,0.8
		c-4.7,1.5-9.7,2.7-14.7,3.7L-313.4,380.2z"/>
	<path class="st3" d="M-334.7,395c-8.4,0-15.3-7.3-15.3-16.3v-30.6l0.4-0.1c0.8-0.3,1.6-1.4,2.5-3.2l0.1-0.1
		c2.9-3.5,5.7-7.7,8.2-12.5l1.1-2.1v43.6c0,1.7,1.4,3,3,3c1.7,0,3-1.4,3-3v-44l1.1,2.1c3.3,6.4,7,11.7,11,15.7l0.2,0.2v31.1
		C-319.4,387.7-326.3,395-334.7,395z"/>
	<path class="st0" d="M-204.8,236.8c-0.8,0-1.5-0.2-1.9-0.4c-0.7-0.4-2.4-1.4-2.4-3.8v-75.7c0-6.6-1.4-13.3-4.1-19.3l-8.5-19
		l14.3,15.1c1.1,1.2,2.1,2.4,3.1,3.7l0.1,0.1l36.5,55.8c3.3,4.7,2.4,11-2.1,14.7l-32.1,27.7C-202.9,236.5-203.8,236.8-204.8,236.8z"
		/>
	<path class="st0" d="M-466,236.8c-0.5,0-1-0.1-1.4-0.2l-0.6-0.3l-33-28.5c-4.4-3.6-5.1-10-1.7-14.8l36.1-55.3c1-1.4,2.1-2.7,3.3-4
		l14.2-15.1l-8.5,19c-2.7,6.1-4.1,12.6-4.1,19.2l0,75.7c0,2.4-1.7,3.5-2.4,3.8C-464.7,236.7-465.3,236.8-466,236.8z"/>
	<path class="st2" d="M-334.9,74.6c-6.7,0-12.1-5.4-12.1-12.1c0-6.7,5.4-12.1,12.1-12.1c6.7,0,12.1,5.4,12.1,12.1
		C-322.9,69.2-328.3,74.6-334.9,74.6z"/>
	<path class="st1" d="M-491.9,373.8l-0.4-0.7c-16.6-28-25.4-60.1-25.4-92.7c0-22,3.9-43.4,11.5-63.8l0.3-0.8l31.6,27.3
		c2.4,1.9,5.3,3,8.4,3c0.2,0,0.6-0.1,1-0.1c0.2,0,0.4-0.1,0.7-0.1l3.9-0.5v42.1c0,14.8,4.3,29.3,12.3,41.7l0.3,0.5l-0.4,0.3
		c-15.7,12-30.3,26.5-43.2,43.2L-491.9,373.8z"/>
	<path class="st1" d="M-178.8,373.8l-0.5-0.7c-12.7-16.4-27-30.7-42.4-42.5l-0.4-0.3l0.3-0.5c8.4-12.6,12.8-27.2,12.8-42.3v-41.7
		l3.7,0.2c0.2,0,0.5,0,0.7,0.1l0,0c3.1,0,6-1.1,8.6-3.2l31.4-27.1l0.3,0.8c7.6,20.4,11.5,41.9,11.5,63.9c0,32.6-8.8,64.7-25.4,92.7
		L-178.8,373.8z"/>
	<path class="st1" d="M-388.6,112.1l-0.3,0l-16.9,0l2.8-1.1c20.2-8,41.5-12.4,63.3-12.9l0.6,0v9.6l-0.6,0c-12.7,0.2-25.5,1.2-38,3
		l-10.1,1.4c-0.3,0-0.4,0-0.6,0L-388.6,112.1z"/>
	<path class="st1" d="M-265,112.1l-16.9,0l-11.2-1.6c-12.3-1.7-24.8-2.7-37.2-2.9l-0.6,0v-9.5l0.6,0c21.4,0.6,42.4,4.9,62.4,12.9
		L-265,112.1z"/>
	<path class="st1" d="M-335,40.6c-12,0-21.8,9.8-21.8,21.8c0,10.1,7.1,19,16.9,21.2V118h1.2V82.7l-0.5-0.1
		c-9.5-2-16.4-10.5-16.4-20.2c0-11.4,9.3-20.6,20.6-20.6c11.4,0,20.6,9.3,20.6,20.6c0,9.7-6.9,18.2-16.4,20.2l-0.5,0.1V118h1.2V83.6
		c9.8-2.3,16.9-11.1,16.9-21.2C-313.2,50.4-322.9,40.6-335,40.6z"/>
	<path class="st1" d="M-218.3,284.5v-99.4c0-8.1-3.2-15.8-8.9-21.6l-33.4-33.3c-5.6-5.6-13.3-8.8-21.2-8.9h-0.2c-0.1,0-0.3,0-0.4,0
		l-11.9-1.6c-10.5-1.5-21.3-2.4-32.2-2.7l-3-0.1l-1.1,0v1.2l1,0l3,0.1c10.8,0.3,21.6,1.2,32,2.7l12,1.6c0.2,0,0.3,0,0.4,0l0.1-0.5
		v0.5h0.3c7.6,0.1,15,3.2,20.4,8.6l33.4,33.3c5.5,5.6,8.6,12.9,8.6,20.8v99.4l0,2.9c0,14.5-4.7,28.3-13.5,39.9l-2.8,3.7l-1.3-4.5
		c-5.2-18.5-20.8-31.5-35.4-41.8l-20.9-14.9c-12.1-8.6-26.4-13.1-41.4-13.1c-15,0-29.4,4.5-41.4,13.1l-20.9,14.9
		c-14.5,10.3-30.1,23.4-35.4,41.9l-1.3,4.5l-2.8-3.7c-8.8-11.6-13.4-25.4-13.4-39.9V185.1c0-7.8,3-15.2,8.5-20.7l33.3-33.3
		c5.6-5.6,13-8.6,20.8-8.6c0.3,0,0.5,0,0.8-0.1l10.3-1.5c10.8-1.5,22-2.5,33.3-2.8l3-0.1l0.6,0v-1.2l-0.6,0l-3,0.1
		c-11.3,0.3-22.6,1.3-33.4,2.8l-10.4,1.5c-0.2,0-0.4,0-0.6,0c-8.1,0-15.8,3.2-21.6,9l-33.4,33.3c-5.7,5.8-8.9,13.4-8.9,21.6v102.3
		c0,14.8,4.7,28.9,13.7,40.7l4.2,5.6l1.9-6.8c5.1-18.1,20.5-31,34.9-41.2l20.9-14.9c11.9-8.4,25.9-12.9,40.7-12.9
		c14.8,0,28.9,4.5,40.7,12.9l20.9,14.9c14.4,10.2,29.8,23.1,34.9,41.2l1.9,6.7l4.2-5.6c9-11.8,13.7-25.8,13.7-40.6L-218.3,284.5z"/>
	<g>
		<circle class="st1" cx="-373.9" cy="305.1" r="2.2"/>
		<circle class="st1" cx="-357.5" cy="312.1" r="1.8"/>
		<circle class="st1" cx="-378.3" cy="321.3" r="2.2"/>
	</g>
	<g>
		<circle class="st1" cx="-295.6" cy="305.1" r="2.2"/>
		<circle class="st1" cx="-312" cy="312.1" r="1.8"/>
		<circle class="st1" cx="-291.2" cy="321.3" r="2.2"/>
	</g>
	<path class="st4" d="M-363.8,46.6c-4.4,4.9-6.9,10.9-6.9,17.4c0,6.3,2.4,12.1,6.5,16.9"/>
	<path class="st4" d="M-305.7,80.9c4.1-4.8,6.5-10.6,6.5-16.9c0-6.5-2.6-12.5-6.9-17.4"/>
	<path class="st5" d="M-377.2,42c-4.8,6.3-7.5,13.7-7.5,21.7c0,7.8,2.7,15.2,7.3,21.4"/>
	<path class="st5" d="M-292.5,85.1c4.6-6.2,7.3-13.5,7.3-21.4c0-7.9-2.7-15.2-7.4-21.4"/>
	<path class="st6" d="M-392.2,37.1c-4.9,7.5-7.8,16.2-7.8,25.3c0,9.5,3,18.4,8.3,26.1"/>
	<path class="st6" d="M-278.3,88.6c5.3-7.7,8.3-16.6,8.3-26.1c0-9.2-2.8-17.8-7.8-25.3"/>
</g>
<g>
	<rect x="0" width="480" height="480"/>
	<g>
		<path class="st0" d="M278,148.4h-6.4c-1.5,0-3.1,0.1-4.6,0.3c-0.8,0.1-1.5,0.5-1.9,1.1c-0.5,0.6-0.7,1.4-0.6,2.2
			c0.2,1.6,1.7,2.7,3.3,2.5c1.2-0.2,2.5-0.3,3.8-0.3h6.4c1.6,0,2.9-1.3,2.9-2.9S279.6,148.4,278,148.4z"/>
		<path class="st0" d="M244,182.4c0-8.3,3.7-16.1,10.1-21.4c0.7-0.6,1.1-1.4,1.2-2.3c0.1-0.9-0.2-1.8-0.8-2.5l0,0
			c-0.6-0.7-1.4-1.1-2.3-1.2s-1.8,0.2-2.5,0.8c-2.3,1.9-4.5,4.2-6.3,6.9l-2.9,4.1l-2.9-4.1c-6.5-9.2-17-14.7-28.2-14.7h-6.4
			c-1.9,0-3.4,1.5-3.4,3.4s1.5,3.4,3.4,3.4h6.4c15.2,0,27.6,12.4,27.6,27.6v21.8c0,1.9,1.5,3.4,3.4,3.4c1.9,0,3.4-1.5,3.4-3.4V182.4
			z"/>
		<g>
			<path d="M185.5,191.2c-12.7,0-23.1,10.4-23.1,23.1s10.4,23.1,23.1,23.1s23.1-10.4,23.1-23.1S198.2,191.2,185.5,191.2z
				 M185.5,229.4c-8.3,0-15.1-6.8-15.1-15.1c0-8.3,6.8-15.1,15.1-15.1s15.1,6.8,15.1,15.1C200.6,222.6,193.8,229.4,185.5,229.4z"/>
			<path class="st1" d="M185.5,237.9c-13,0-23.6-10.6-23.6-23.6c0-13,10.6-23.6,23.6-23.6s23.6,10.6,23.6,23.6
				C209.1,227.3,198.5,237.9,185.5,237.9z M185.5,191.7c-12.5,0-22.6,10.1-22.6,22.6s10.1,22.6,22.6,22.6s22.6-10.1,22.6-22.6
				S198,191.7,185.5,191.7z M185.5,229.9c-8.6,0-15.6-7-15.6-15.6c0-8.6,7-15.6,15.6-15.6s15.6,7,15.6,15.6
				C201.1,222.9,194.1,229.9,185.5,229.9z"/>
		</g>
		<g>
			<path d="M294.5,191.2c-12.7,0-23.1,10.4-23.1,23.1s10.4,23.1,23.1,23.1s23.1-10.4,23.1-23.1S307.2,191.2,294.5,191.2z
				 M294.5,229.4c-8.3,0-15.1-6.8-15.1-15.1c0-8.3,6.8-15.1,15.1-15.1s15.1,6.8,15.1,15.1C309.6,222.6,302.8,229.4,294.5,229.4z"/>
			<path class="st1" d="M294.5,237.9c-13,0-23.6-10.6-23.6-23.6c0-13,10.6-23.6,23.6-23.6s23.6,10.6,23.6,23.6
				C318.1,227.3,307.5,237.9,294.5,237.9z M294.5,191.7c-12.5,0-22.6,10.1-22.6,22.6s10.1,22.6,22.6,22.6s22.6-10.1,22.6-22.6
				S307,191.7,294.5,191.7z M294.5,229.9c-8.6,0-15.6-7-15.6-15.6c0-8.6,7-15.6,15.6-15.6s15.6,7,15.6,15.6
				C310.1,222.9,303.1,229.9,294.5,229.9z"/>
		</g>
		<path class="st1" d="M332.8,306.5c-1.9,2.3-4,4.4-6.2,6.4l-0.9,0.8l0.9,14.3l0,0.1c0,0.1,0,0.2,0,0.3c0,0.1,0,0.2,0,0.4l-0.7,6.8
			c0,0.1,0,0.1,0,0.2l0,0.1c-1.8,12.3-12.9,21.6-25.6,21.6c-8.1,0-15.6-3.6-20.5-9.8l-1.1-1.4l-1.7,0.6c-6.6,2.3-13.3,3.9-20.2,4.9
			c-3.3,5.7-9.3,9.5-16.1,9.5c-6.8,0-12.8-3.8-16.1-9.5c-6.8-1-13.6-2.6-20.2-4.9l-1.7-0.6l-1.1,1.4c-5,6.2-12.4,9.8-20.5,9.8
			c-13.1,0-24.1-9.5-25.8-21.9l-0.8-6.8l0-0.1c0-0.1,0-0.2,0-0.3c0-0.1,0-0.2,0-0.4l0.9-14.4l-0.9-0.8c-2.3-2.1-4.5-4.3-6.4-6.6
			l-0.3-0.2c-0.3,0.3-0.7,0.5-1,0.8l0.5,0.4c2,2.4,4.2,4.6,6.4,6.6l0.7,0.6l-0.9,14.2c0,0.1,0,0.2,0,0.4c0,0.1,0,0.2,0,0.3l0.8,7
			c1.7,12.7,13,22.3,26.4,22.3c8.2,0,15.9-3.7,21-10l0.9-1.1l1.3,0.5c6.5,2.2,13.3,3.8,20.2,4.8c3.6,6,9.7,9.6,16.5,9.6
			c6.8,0,12.9-3.6,16.5-9.6c6.9-1,13.6-2.6,20.1-4.8l1.3-0.5l0.9,1.1c5.1,6.3,12.8,9.9,21.1,10c13.1,0,24.4-9.5,26.3-22l0.8-7.2
			c0-0.1,0-0.2,0-0.3l0-0.5l-0.9-14.1l0.7-0.6c2.1-1.8,4.1-3.9,6-6.1l0.3-0.5C333.4,307.1,333.1,306.8,332.8,306.5z"/>
		<path class="st2" d="M309.9,122.3l29.9,29.9l-1.2-6.4c-0.7-3.7-2-7.2-3.8-10.2l-7.9-13.2l-1.1,0c-0.3,0-0.7,0-1,0H309.9z"/>
		<path class="st2" d="M153,122.4l-7.9,13.2c-2.1,3.6-3.5,7.5-4.1,11.7l-0.8,5.9l30.9-30.9h-16c-0.3,0-0.7,0-1,0L153,122.4z"/>
		<path class="st0" d="M300.1,349.3c-8.7,0-16.4-6.4-17.4-14.5l-0.8-6.8c0-0.2-0.1-0.4-0.1-0.6l-0.1-0.5c-0.2-2.2-0.5-4.1-1-5.8
			c0,0,0-0.1,0-0.1c0,0,0-0.1-0.1-0.1l-0.1-0.4l0.4-0.2c2-1.1,4.1-2.5,6.1-4.1c1.5-1.2,1.7-3.4,0.5-4.9l0,0
			c-1.2-1.5-3.4-1.7-4.9-0.5c-5.8,4.8-11,6.3-16,4.8c-11.6-3.6-19.7-23.5-21.8-30.9c0-0.1,0-0.1-0.1-0.1l-0.1-0.3v-10.5
			c0-0.4-0.1-0.9-0.3-1.3l-1-2.6l2.6-1.1c2.3-1,4.4-2.6,6.1-4.8l4.8-5.9c1.2-1.4,1.5-3.1,1.5-4.2l0.2-4.5l4.1,1.9
			c3,1.4,5.9,3,8.4,4.8l17.9,12.7c9.8,7,20.5,15.6,25.3,26.9l2.7,6.2l0.5,12.4l0.8,12.8l-1.1,10.3l-0.9,1.9
			C313.3,345.1,306.9,349.2,300.1,349.3z"/>
		<path class="st0" d="M181.1,349.3c-8.7,0-16.4-6.4-17.4-14.5l-0.7-6.4l1.2-19.5c0-0.1,0-0.2,0-0.2c0-17.7,13.5-29.7,28.1-40.1
			l17.9-12.7c2.5-1.8,5.4-3.4,8.4-4.8l4.1-1.9l0.2,4.5c0,1.1,0.3,2.7,1.5,4.2l4.8,5.9c1.7,2.1,3.8,3.7,6.1,4.8l2.6,1.1l-1,2.6
			c-0.2,0.5-0.3,0.9-0.3,1.3l0,11.2c-2.7,9.1-10.8,27.3-21.8,30.7c-5,1.5-10.2,0-16-4.8c-1.5-1.2-3.7-1-4.9,0.5
			c-1.2,1.5-1,3.7,0.5,4.9c1.8,1.5,3.7,2.8,5.7,3.9l0.3,0.2l-0.1,0.4c-0.5,2.3-0.9,4.7-1,7.1l0,0.2c0,0.1,0,0.3-0.1,0.4l-0.7,6.4
			C197.4,342.8,189.7,349.2,181.1,349.3z"/>
		<path class="st2" d="M222.3,343.1l-0.6-0.1c-4.3-0.8-8.5-1.9-12.6-3.1l-2.1-0.7V330c0-2.3,0.2-4.6,0.7-6.8l0.1-0.5l0.5,0.1
			c1.1,0.2,1.9,0.2,2.8,0.2c1.9,0,3.9-0.3,5.8-0.9c1.6-0.5,3.1-1.2,4.6-2.1l0.8-0.4V342c0,0.1,0,0.2,0,0.3c0,0.1,0,0.2,0,0.3
			L222.3,343.1z"/>
		<path class="st2" d="M258.8,343.1l0-0.6c0-0.1,0-0.2,0-0.3c0-0.1,0-0.2,0-0.3l0-0.3l0.2-0.1l-0.2-22l0.8,0.5
			c1.6,1,3.2,1.7,4.8,2.2c1.9,0.6,3.9,0.9,5.8,0.9c0.7,0,1.5-0.1,2.4-0.2l0.4-0.1l0.1,0.4c0.6,2.6,0.9,5.3,0.9,8v7.9l-2.1,0.7
			c-4,1.3-8.3,2.3-12.5,3.1L258.8,343.1z"/>
		<path class="st3" d="M240.5,355.7c-7.2,0-13.1-6.3-13.1-13.9v-26.2l0.3-0.1c0.6-0.3,1.4-1.2,2.1-2.7l0.1-0.1c2.5-3,4.9-6.6,7-10.7
			l0.9-1.8v37.4c0,1.4,1.2,2.6,2.6,2.6c1.4,0,2.6-1.2,2.6-2.6v-37.7l0.9,1.8c2.9,5.5,6,10,9.4,13.5l0.1,0.1v26.6
			C253.6,349.5,247.8,355.7,240.5,355.7z"/>
		<path class="st0" d="M351.8,220.3c-0.7,0-1.2-0.2-1.6-0.4c-0.6-0.3-2.1-1.2-2.1-3.3v-64.8c0-5.7-1.2-11.4-3.5-16.6l-7.3-16.2
			l12.2,12.9c0.9,1,1.8,2.1,2.7,3.2l0.1,0.1l31.2,47.8c2.8,4,2,9.4-1.8,12.6l-27.5,23.8C353.4,220,352.6,220.3,351.8,220.3z"/>
		<path class="st0" d="M128.1,220.3c-0.4,0-0.8-0.1-1.2-0.2l-0.6-0.2l-28.2-24.4c-3.8-3.1-4.4-8.5-1.5-12.7l30.9-47.4
			c0.9-1.2,1.8-2.3,2.8-3.4l12.2-13l-7.2,16.2c-2.3,5.2-3.5,10.8-3.5,16.5l0,64.9c0,2.1-1.4,3-2.1,3.3
			C129.2,220.1,128.7,220.3,128.1,220.3z"/>
		<path class="st2" d="M240.3,81.4c-5.7,0-10.3-4.6-10.3-10.3c0-5.7,4.6-10.3,10.3-10.3c5.7,0,10.3,4.6,10.3,10.3
			C250.7,76.7,246,81.4,240.3,81.4z"/>
		<path class="st1" d="M105.9,337.6l-0.4-0.6c-14.2-24-21.7-51.4-21.7-79.4c0-18.8,3.3-37.2,9.8-54.7l0.3-0.7l27.1,23.4
			c2,1.7,4.5,2.5,7.2,2.5c0.2,0,0.5,0,0.8-0.1c0.2,0,0.4-0.1,0.6-0.1l3.4-0.4v36.1c0,12.7,3.7,25.1,10.6,35.7l0.3,0.4l-0.4,0.3
			c-13.5,10.3-25.9,22.7-37,37L105.9,337.6z"/>
		<path class="st1" d="M374.1,337.6l-0.5-0.6c-10.9-14-23.1-26.3-36.3-36.4l-0.4-0.3l0.3-0.4c7.2-10.8,10.9-23.3,10.9-36.3v-35.7
			l3.1,0.2c0.2,0,0.4,0,0.6,0.1l0,0c2.6,0,5.2-1,7.3-2.7l26.9-23.2l0.3,0.7c6.5,17.5,9.9,35.9,9.9,54.7c0,27.9-7.5,55.4-21.7,79.4
			L374.1,337.6z"/>
		<path class="st1" d="M194.4,113.5l-0.2,0l-14.5,0l2.4-1c17.3-6.9,35.5-10.6,54.2-11l0.5,0v8.2l-0.5,0c-10.9,0.2-21.8,1-32.6,2.6
			l-8.7,1.2c-0.2,0-0.4,0-0.5,0L194.4,113.5z"/>
		<path class="st1" d="M300.2,113.4l-14.5,0l-9.6-1.3c-10.5-1.5-21.2-2.3-31.8-2.5l-0.5,0v-8.2l0.5,0c18.4,0.5,36.3,4.2,53.4,11
			L300.2,113.4z"/>
		<path class="st1" d="M240.3,52.2c-10.3,0-18.7,8.4-18.7,18.7c0,8.7,6.1,16.2,14.5,18.2v29.5h1V88.2l-0.4-0.1
			c-8.1-1.7-14.1-9-14.1-17.3c0-9.7,7.9-17.7,17.7-17.7S258,61.1,258,70.9c0,8.3-5.9,15.6-14.1,17.3l-0.4,0.1v30.3h1V89
			c8.4-1.9,14.5-9.5,14.5-18.2C259,60.6,250.6,52.2,240.3,52.2z"/>
		<path class="st1" d="M340.2,261.1V176c0-7-2.7-13.5-7.6-18.5L304,129c-4.8-4.8-11.4-7.6-18.1-7.6h-0.2c-0.1,0-0.2,0-0.4,0
			l-10.2-1.4c-9-1.3-18.2-2-27.5-2.3l-2.6-0.1l-0.9,0v1l0.9,0l2.6,0.1c9.3,0.3,18.5,1,27.4,2.3l10.3,1.4c0.1,0,0.2,0,0.3,0l0.1-0.4
			v0.4h0.2c6.5,0.1,12.9,2.8,17.4,7.4l28.6,28.5c4.7,4.8,7.3,11.1,7.3,17.8v85.1l0,2.5c0,12.5-4,24.3-11.5,34.2l-2.4,3.2l-1.1-3.9
			c-4.5-15.8-17.8-27-30.3-35.8L276,248.6c-10.3-7.3-22.6-11.2-35.5-11.2c-12.9,0-25.1,3.9-35.5,11.2l-17.9,12.7
			c-12.5,8.9-25.8,20-30.3,35.9l-1.1,3.9l-2.4-3.2c-7.5-9.9-11.5-21.8-11.5-34.2V176c0-6.7,2.6-13,7.3-17.8l28.6-28.6
			c4.8-4.8,11.1-7.4,17.8-7.4c0.2,0,0.5,0,0.7-0.1l8.9-1.3c9.2-1.3,18.8-2.1,28.5-2.4l2.6-0.1l0.5,0v-1l-0.5,0l-2.6,0.1
			c-9.7,0.3-19.3,1.1-28.6,2.4l-8.9,1.3c-0.2,0-0.4,0-0.5,0c-6.9,0-13.5,2.7-18.5,7.7l-28.6,28.6c-4.9,4.9-7.6,11.5-7.6,18.5v87.6
			c0,12.7,4,24.7,11.7,34.8l3.6,4.8l1.6-5.8c4.4-15.5,17.6-26.6,29.9-35.3l17.9-12.7c10.2-7.2,22.2-11,34.9-11
			c12.7,0,24.7,3.8,34.9,11l17.9,12.7c12.3,8.7,25.5,19.8,29.9,35.3l1.6,5.8l3.6-4.8c7.7-10.1,11.7-22.1,11.7-34.8L340.2,261.1z"/>
		<g>
			<circle class="st1" cx="207" cy="278.7" r="1.9"/>
			<circle class="st1" cx="221.1" cy="284.8" r="1.6"/>
			<circle class="st1" cx="203.2" cy="292.6" r="1.9"/>
		</g>
		<g>
			<circle class="st1" cx="274" cy="278.7" r="1.9"/>
			<circle class="st1" cx="260" cy="284.8" r="1.6"/>
			<circle class="st1" cx="277.8" cy="292.6" r="1.9"/>
		</g>
		<path class="st4" d="M215.7,57.4c-3.7,4.2-5.9,9.3-5.9,14.9c0,5.4,2.1,10.4,5.6,14.5"/>
		<path class="st4" d="M265.4,86.7c3.5-4.1,5.6-9.1,5.6-14.5c0-5.6-2.2-10.7-5.9-14.9"/>
		<path class="st5" d="M204.2,53.4c-4.1,5.4-6.5,11.7-6.5,18.6c0,6.7,2.3,13,6.3,18.3"/>
		<path class="st5" d="M276.7,90.3c4-5.3,6.3-11.6,6.3-18.3c0-6.7-2.3-13-6.3-18.4"/>
		<path class="st6" d="M191.3,49.2c-4.2,6.5-6.6,13.9-6.6,21.7c0,8.1,2.6,15.8,7.1,22.4"/>
		<path class="st6" d="M288.9,93.3c4.5-6.6,7.1-14.2,7.1-22.4c0-7.9-2.4-15.2-6.6-21.7"/>
	</g>
	<g>
		<text transform="matrix(1 0 0 1 155.1133 437.4043)" class="st1 st7 st8">anony</text>
		<text transform="matrix(1 0 0 1 263.0371 439.9502)" class="st1 st9 st10">dog</text>
	</g>
</g>
</svg>
